<?xml version="1.0" encoding="UTF-8" standalone="no"?>
<!DOCTYPE svg PUBLIC "-//W3C//DTD SVG 1.1//EN" "http://www.w3.org/Graphics/SVG/1.1/DTD/svg11.dtd">
<svg version="1.1" xmlns="http://www.w3.org/2000/svg" xmlns:xlink="http://www.w3.org/1999/xlink" preserveAspectRatio="xMidYMid meet" viewBox="0 0 640 640" width="640" height="640"><defs><path d="M417.74 294.32C417.74 300.17 412.99 304.92 407.13 304.92C378.06 304.92 301.45 304.92 272.38 304.92C266.52 304.92 261.77 300.17 261.77 294.32C261.77 263.79 261.77 182.82 261.77 152.29C261.77 146.43 266.52 141.68 272.38 141.68C301.45 141.68 378.06 141.68 407.13 141.68C412.99 141.68 417.74 146.43 417.74 152.29C417.74 182.82 417.74 263.79 417.74 294.32Z" id="c1plLsgutB"></path><path d="M263.97 302.73L415.54 302.73L415.54 209.48L394.32 193.12L379.62 177.77L363.46 190.05L352.34 184.93L325.06 168.56L293.74 182.89L263.97 212.55L263.97 302.73Z" id="b79zecil9Q"></path><path d="M289.4 241.91C289.4 244.76 287.08 247.08 284.23 247.08C281.37 247.08 279.06 244.76 279.06 241.91C279.06 239.06 281.37 236.74 284.23 236.74C287.08 236.74 289.4 239.06 289.4 241.91Z" id="aoUhadb8j"></path><path d="M388.39 236.74C391.25 236.74 393.56 239.06 393.56 241.91C393.56 242.95 393.56 240.88 393.56 241.91C393.56 244.77 391.25 247.08 388.39 247.08C370.3 247.08 321.17 247.08 303.07 247.08C300.22 247.08 297.9 244.77 297.9 241.91C297.9 240.88 297.9 242.95 297.9 241.91C297.9 239.06 300.22 236.74 303.07 236.74C321.17 236.74 370.3 236.74 388.39 236.74Z" id="b1TaYu5lDd"></path><path d="M388.39 264.08C391.25 264.08 393.56 266.4 393.56 269.25C393.56 270.29 393.56 268.22 393.56 269.25C393.56 272.11 391.25 274.42 388.39 274.42C370.3 274.42 321.17 274.42 303.07 274.42C300.22 274.42 297.9 272.11 297.9 269.25C297.9 268.22 297.9 270.29 297.9 269.25C297.9 266.4 300.22 264.08 303.07 264.08C321.17 264.08 370.3 264.08 388.39 264.08Z" id="aekBS8qHl"></path><path d="M289.4 269.25C289.4 272.11 287.08 274.42 284.23 274.42C281.37 274.42 279.06 272.11 279.06 269.25C279.06 266.4 281.37 264.08 284.23 264.08C287.08 264.08 289.4 266.4 289.4 269.25Z" id="cfawi07gZ"></path><path d="M417.74 294.32C417.74 300.17 412.99 304.92 407.13 304.92C378.06 304.92 301.45 304.92 272.38 304.92C266.52 304.92 261.77 300.17 261.77 294.32C261.77 263.79 261.77 182.82 261.77 152.29C261.77 146.43 266.52 141.68 272.38 141.68C301.45 141.68 378.06 141.68 407.13 141.68C412.99 141.68 417.74 146.43 417.74 152.29C417.74 182.82 417.74 263.79 417.74 294.32Z" id="l4e10MRIa"></path><path d="M417.74 208.64L395.12 192.15L380.05 177.87L364.22 190.5L325.21 168.56L292.42 183.36L261.77 211.38" id="a3U9114i4U"></path></defs><g><g><g><use xlink:href="#c1plLsgutB" opacity="1" fill="#73b3ef" fill-opacity="1"></use></g><g><use xlink:href="#b79zecil9Q" opacity="1" fill="#ef7676" fill-opacity="1"></use></g><g><use xlink:href="#aoUhadb8j" opacity="1" fill="#090909" fill-opacity="1"></use></g><g><use xlink:href="#b1TaYu5lDd" opacity="1" fill="#171720" fill-opacity="1"></use></g><g><use xlink:href="#aekBS8qHl" opacity="1" fill="#171720" fill-opacity="1"></use></g><g><use xlink:href="#cfawi07gZ" opacity="1" fill="#090909" fill-opacity="1"></use></g><g><g><use xlink:href="#l4e10MRIa" opacity="1" fill-opacity="0" stroke="#060606" stroke-width="5" stroke-opacity="1"></use></g></g><g><g><use xlink:href="#a3U9114i4U" opacity="1" fill-opacity="0" stroke="#000000" stroke-width="5" stroke-opacity="1"></use></g></g></g></g></svg>