<?xml version="1.0" encoding="UTF-8" standalone="no"?>
<!DOCTYPE svg PUBLIC "-//W3C//DTD SVG 1.1//EN" "http://www.w3.org/Graphics/SVG/1.1/DTD/svg11.dtd">
<svg version="1.1" xmlns="http://www.w3.org/2000/svg" xmlns:xlink="http://www.w3.org/1999/xlink" preserveAspectRatio="xMidYMid meet" viewBox="221.24050632911394 162.06329113924045 140.49367088607596 140.49367088607602" width="134.49" height="134.49"><defs><path d="M358.73 232.31C358.73 269.42 328.6 299.56 291.49 299.56C254.37 299.56 224.24 269.42 224.24 232.31C224.24 195.2 254.37 165.06 291.49 165.06C328.6 165.06 358.73 195.2 358.73 232.31Z" id="b7hQlUSWBD"></path><path d="M358.73 232.31L320 202.72L302.78 211.33L271.58 196.27L224.24 232.31" id="e2LUns0s5L"></path><path d="M224.24 240.05L227.65 253.12L232.2 265.83L240.15 275.28L248.68 284.94L257.77 291.19L268.56 295.73L283.66 299.56L301.83 299.56L324.25 291.19L337.88 280.96L350.95 265.83L357.2 249.14L358.73 232.31L320 202.55L303.79 211.07L271 196.27L224.24 232.31L224.24 240.05Z" id="b1qdPIwVOO"></path><path d="M358.73 232.31C358.73 269.42 328.6 299.56 291.49 299.56C254.37 299.56 224.24 269.42 224.24 232.31C224.24 195.2 254.37 165.06 291.49 165.06C328.6 165.06 358.73 195.2 358.73 232.31Z" id="gaiAOhaMu"></path><path d="" id="a2XaUkVUz"></path><path d="M269.68 253.04C269.68 256.74 266.67 259.74 262.97 259.74C259.27 259.74 256.27 256.74 256.27 253.04C256.27 249.34 259.27 246.33 262.97 246.33C266.67 246.33 269.68 249.34 269.68 253.04Z" id="bAjWYOH1"></path><path d="M320.66 250C322.34 250 323.7 251.36 323.7 253.04C323.7 253.65 323.7 252.43 323.7 253.04C323.7 254.72 322.34 256.08 320.66 256.08C314 256.08 297.06 256.08 290.4 256.08C288.72 256.08 287.36 254.72 287.36 253.04C287.36 252.43 287.36 253.65 287.36 253.04C287.36 251.36 288.72 250 290.4 250C297.06 250 314 250 320.66 250Z" id="m5MqDMp7"></path></defs><g><g><use xlink:href="#b7hQlUSWBD" opacity="1" fill="#d11a77" fill-opacity="1"></use></g><g><g><use xlink:href="#e2LUns0s5L" opacity="1" fill-opacity="0" stroke="#232323" stroke-width="6" stroke-opacity="1"></use></g></g><g><use xlink:href="#b1qdPIwVOO" opacity="1" fill="#232323" fill-opacity="1"></use></g><g><g><use xlink:href="#gaiAOhaMu" opacity="1" fill-opacity="0" stroke="#232323" stroke-width="6" stroke-opacity="1"></use></g></g><g><g><use xlink:href="#a2XaUkVUz" opacity="1" fill-opacity="0" stroke="#232323" stroke-width="6" stroke-opacity="1"></use></g></g><g><use xlink:href="#bAjWYOH1" opacity="1" fill="#d11a77" fill-opacity="1"></use></g><g><use xlink:href="#m5MqDMp7" opacity="1" fill="#d11a77" fill-opacity="1"></use></g></g></svg>