<?xml version="1.0" encoding="UTF-8" standalone="no"?>
<!DOCTYPE svg PUBLIC "-//W3C//DTD SVG 1.1//EN" "http://www.w3.org/Graphics/SVG/1.1/DTD/svg11.dtd">
<svg version="1.1" xmlns="http://www.w3.org/2000/svg" xmlns:xlink="http://www.w3.org/1999/xlink" preserveAspectRatio="xMidYMid meet" viewBox="274.2916666666666 428.97916666666663 151.83333333333348 154.33333333333337" width="145.83" height="145.83"><defs><path d="M423.13 504.9C423.13 545.14 390.45 577.81 350.21 577.81C309.96 577.81 277.29 545.14 277.29 504.9C277.29 464.65 309.96 431.98 350.21 431.98C390.45 431.98 423.13 464.65 423.13 504.9Z" id="a16jitLvbs"></path><path d="M423.13 504.9C423.13 545.14 390.45 577.81 350.21 577.81C309.96 577.81 277.29 545.14 277.29 504.9C277.29 464.65 309.96 431.98 350.21 431.98C390.45 431.98 423.13 464.65 423.13 504.9Z" id="a6xUj6iR5"></path><path d="M299.17 558.02L310.62 567.4L326.25 574.69L348.12 577.81L370 574.69L386.67 567.4L401.25 554.9L412.71 542.4L418.96 528.85L395 517.4L380.42 525.73L350.21 506.98L287.36 542.4L299.17 558.02Z" id="agzvYgnmS"></path><path d="M335.25 483.64C335.25 487.59 332.05 490.8 328.09 490.8C324.14 490.8 320.94 487.59 320.94 483.64C320.94 479.69 324.14 476.48 328.09 476.48C332.05 476.48 335.25 479.69 335.25 483.64Z" id="b3z4MfC4wB"></path><path d="M381.46 480.59C383.14 480.59 384.5 481.96 384.5 483.64C384.5 484.25 384.5 483.03 384.5 483.64C384.5 485.32 383.14 486.68 381.46 486.68C374.8 486.68 357.86 486.68 351.2 486.68C349.52 486.68 348.16 485.32 348.16 483.64C348.16 483.03 348.16 484.25 348.16 483.64C348.16 481.96 349.52 480.59 351.2 480.59C357.86 480.59 374.8 480.59 381.46 480.59Z" id="a5cdXU9XRK"></path></defs><g><g><use xlink:href="#a16jitLvbs" opacity="1" fill="#d11a77" fill-opacity="1"></use></g><g><g><use xlink:href="#a6xUj6iR5" opacity="1" fill-opacity="0" stroke="#151515" stroke-width="6" stroke-opacity="1"></use></g></g><g><use xlink:href="#agzvYgnmS" opacity="1" fill="#ffffff" fill-opacity="1"></use><g><use xlink:href="#agzvYgnmS" opacity="1" fill-opacity="0" stroke="#ffffff" stroke-width="11" stroke-opacity="1"></use></g></g><g><use xlink:href="#b3z4MfC4wB" opacity="1" fill="#1d171a" fill-opacity="1"></use></g><g><use xlink:href="#a5cdXU9XRK" opacity="1" fill="#1d171a" fill-opacity="1"></use></g></g></svg>