<?xml version="1.0" encoding="UTF-8" standalone="no"?>
<!DOCTYPE svg PUBLIC "-//W3C//DTD SVG 1.1//EN" "http://www.w3.org/Graphics/SVG/1.1/DTD/svg11.dtd">
<svg version="1.1" xmlns="http://www.w3.org/2000/svg" xmlns:xlink="http://www.w3.org/1999/xlink" preserveAspectRatio="xMidYMid meet" viewBox="440.34429824561397 288.45285087719293 151.83333333333331 151.8333333333336" width="145.83" height="145.83"><defs><path d="M589.18 364.37C589.18 404.61 556.5 437.29 516.26 437.29C476.02 437.29 443.34 404.61 443.34 364.37C443.34 324.13 476.02 291.45 516.26 291.45C556.5 291.45 589.18 324.13 589.18 364.37Z" id="g2xKM2SyPc"></path><path d="M589.18 364.37C589.18 404.61 556.5 437.29 516.26 437.29C476.02 437.29 443.34 404.61 443.34 364.37C443.34 324.13 476.02 291.45 516.26 291.45C556.5 291.45 589.18 324.13 589.18 364.37Z" id="bI7UpgoXL"></path><path d="M464.72 417.49L476.18 426.87L491.81 434.16L513.68 437.29L535.56 434.16L552.22 426.87L566.81 414.37L578.27 401.87L584.52 388.33L560.56 376.87L545.97 385.2L515.77 366.45L452.92 401.87L464.72 417.49Z" id="aeLDSxbTW"></path><path d="M507.21 344.6C507.21 348.56 504 351.76 500.05 351.76C496.1 351.76 492.89 348.56 492.89 344.6C492.89 340.65 496.1 337.44 500.05 337.44C504 337.44 507.21 340.65 507.21 344.6Z" id="dONXkN7MD"></path><path d="M539.5 344.6C539.5 348.56 536.29 351.76 532.34 351.76C528.39 351.76 525.18 348.56 525.18 344.6C525.18 340.65 528.39 337.44 532.34 337.44C536.29 337.44 539.5 340.65 539.5 344.6Z" id="a1rOemgPyM"></path></defs><g><g><use xlink:href="#g2xKM2SyPc" opacity="1" fill="#d11a77" fill-opacity="1"></use></g><g><g><use xlink:href="#bI7UpgoXL" opacity="1" fill-opacity="0" stroke="#151515" stroke-width="6" stroke-opacity="1"></use></g></g><g><use xlink:href="#aeLDSxbTW" opacity="1" fill="#151515" fill-opacity="1"></use></g><g><use xlink:href="#dONXkN7MD" opacity="1" fill="#1d171a" fill-opacity="1"></use></g><g><use xlink:href="#a1rOemgPyM" opacity="1" fill="#1d171a" fill-opacity="1"></use></g></g></svg>